inDegrees=no
num_controls=7
num_derivatives=13
num_iterations=172
num_multipliers=7
num_parameters=0
num_slacks=7
num_states=26
objective=5.317465
objective_accelerations=0.465483
objective_balance=0.008890
objective_effort=0.393782
objective_height=4.356783
objective_ligament=0.092526
solver_duration=1430.698471
status=Solve_Succeeded
success=true
DataType=double
version=3
OpenSimVersion=4.4-2022-07-23-0e9fedc
endheader
time	/jointset/ground_pelvis/pelvis_tilt/value	/jointset/ground_pelvis/pelvis_tx/value	/jointset/ground_pelvis/pelvis_ty/value	/jointset/hip_r/hip_flexion_r/value	/jointset/hip_r/hip_adduction_r/value	/jointset/hip_r/hip_rotation_r/value	/jointset/back/lumbar_extension/value	/jointset/patellofemoral_r/patellar_flexion_r/value	/jointset/knee_r/knee_flexion_r/value	/jointset/knee_r/knee_adduction_r/value	/jointset/knee_r/knee_rotation_r/value	/jointset/ankle_r/ankle_angle_r/value	/jointset/subtalar_r/subtalar_angle_r/value	/jointset/ground_pelvis/pelvis_tilt/speed	/jointset/ground_pelvis/pelvis_tx/speed	/jointset/ground_pelvis/pelvis_ty/speed	/jointset/hip_r/hip_flexion_r/speed	/jointset/hip_r/hip_adduction_r/speed	/jointset/hip_r/hip_rotation_r/speed	/jointset/back/lumbar_extension/speed	/jointset/patellofemoral_r/patellar_flexion_r/speed	/jointset/knee_r/knee_flexion_r/speed	/jointset/knee_r/knee_adduction_r/speed	/jointset/knee_r/knee_rotation_r/speed	/jointset/ankle_r/ankle_angle_r/speed	/jointset/subtalar_r/subtalar_angle_r/speed	/forceset/tau_hip_flexion_r	/forceset/tau_hip_adduction_r	/forceset/tau_hip_rotation_r	/forceset/tau_knee_flexion_r	/forceset/tau_ankle_angle_r	/forceset/tau_subtalar_angle_r	/forceset/tau_lumbar_extension	lambda_cid13_p0	lambda_cid14_p0	lambda_cid14_p1	lambda_cid14_p2	lambda_cid14_p3	lambda_cid14_p4	lambda_cid14_p5	/jointset/ground_pelvis/pelvis_tilt/accel	/jointset/ground_pelvis/pelvis_tx/accel	/jointset/ground_pelvis/pelvis_ty/accel	/jointset/hip_r/hip_flexion_r/accel	/jointset/hip_r/hip_adduction_r/accel	/jointset/hip_r/hip_rotation_r/accel	/jointset/back/lumbar_extension/accel	/jointset/patellofemoral_r/patellar_flexion_r/accel	/jointset/knee_r/knee_flexion_r/accel	/jointset/knee_r/knee_adduction_r/accel	/jointset/knee_r/knee_rotation_r/accel	/jointset/ankle_r/ankle_angle_r/accel	/jointset/subtalar_r/subtalar_angle_r/accel	gamma_cid13_p0	gamma_cid14_p0	gamma_cid14_p1	gamma_cid14_p2	gamma_cid14_p3	gamma_cid14_p4	gamma_cid14_p5
0	0.001155462104640761	0.1273080205340811	0.9345119180701658	0.1934208783645156	-0.2140841731500169	-0.2417597206548589	-0.2903791543005566	0.2311793314021597	0.2311793314021609	0.1018734925782595	0.1649293605349739	0.08934340440958972	0.08136729347438963	0	0	0	0	0	0	0	0	0	0	0	0	0	0.1050246756168412	-0.06011715261025371	3.68027031025264e-05	-0.2484400062290623	0.13512132826596	-0.05942470889234221	-0.02240214119373317	-29.59477688791245	-1.705856749503028	-22.15567660798451	-0.5590179936180104	-5.71720607811546	-614.7642915103205	59.01115381055397	-1.255585951124841	-1.491051054777751	-0.7323930833594341	8.203586024607592	0.09022352600706925	1.624574282653106	-5.937058175334401	9.010430026136589	9.01043002613539	-2.606009379055817	0.4565349279476712	2.707066887673654	0.9176021947153598	2.812076909648868e-08	1.669593844716166e-08	-2.196546080995847e-07	1.732707772502386e-07	8.347250030907589e-09	1.204816626971957e-07	-2.087999992737909e-07
0.01	0.001097690508352392	0.1272345209131447	0.9344763897330073	0.1938195789397928	-0.2140780727195217	-0.2416790884413379	-0.2906760732792196	0.2316205942795175	0.2316205942794924	0.1017423329654757	0.1649496243889291	0.08947630363848028	0.08141440528490071	-0.01150856125820703	-0.01461537260141472	-0.007080280430506796	0.07933683525036338	0.001214339547200784	0.01603590639157234	-0.05891384686715156	0.08780119008502751	0.08780119008502163	-0.02609609114812575	0.004026528832522292	0.02645287163949913	0.009379198051143229	0.1000802610501287	-0.0656819954166581	0.0003681790425103916	-0.2429525119431177	0.1263462539916005	-0.05193422534745372	-0.01805598407310458	-29.60008200551763	-4.16028836891776	-19.09705615315661	-1.315365561208685	-4.881029842925434	-616.4806180666803	64.90937643543833	-1.091629358160373	-1.434095955459557	-0.6920133763932518	7.738240202000552	0.1361750823944506	1.579553680694202	-5.79805561265103	8.597250067453199	8.597250067453022	-2.591052688781341	0.3718096558626707	2.59535569989519	0.9415899742646814	3.586845486193886e-08	6.539037466406131e-09	-2.603622242838702e-07	1.953688186008218e-07	2.267687095030006e-08	1.82014690824358e-08	-2.420267823228742e-07
0.02	0.0009262056704829151	0.1270174044476668	0.9343708250208453	0.1949995494529492	-0.2140600017109011	-0.2414408061912586	-0.2915480322605998	0.2329263263712849	0.2329263263712853	0.1013542837000977	0.1650093730901854	0.08986992326332327	0.08155401134871339	-0.02274264831611955	-0.02872336890830105	-0.01400727500073794	0.1562539875707016	0.002394115627091821	0.03153000731454324	-0.1150080005441236	0.1728938428807555	0.172893842880751	-0.05137793053987498	0.007896969463372212	0.05214407919128594	0.01849885066032362	0.09513584648370253	-0.07124683822300217	0.0006995553819218849	-0.2374650176569906	0.1175711797173298	-0.04444374180246415	-0.01370982695232122	-29.61554844280968	-6.545252235863523	-16.04027292221905	-2.055427989497472	-4.036703166408596	-617.098384376136	70.56954205640017	-1.200691111065963	-1.389575795872062	-0.7017359113043029	7.719649438602552	0.08331083254512076	1.516213188932809	-5.373119537298505	8.468722568276682	8.468722568276942	-2.443159027780516	0.4253172876131941	2.554734070131202	0.8656931063227997	4.361614062738904e-08	-3.617863514349401e-09	-3.010698404681557e-07	2.17466859951405e-07	3.700649186969254e-08	-8.40787245323241e-08	-2.752535653719576e-07
0.03	0.0006434928612981407	0.1266616326295075	0.9341964697409515	0.1969374755297848	-0.2140306466292747	-0.2410503006725389	-0.2929679274336743	0.2350703878527479	0.2350703878527623	0.1007180257506626	0.1651072544575155	0.09051682667976867	0.08178317677063422	-0.03374840727844805	-0.04235691461721557	-0.02086096281571331	0.2309767381097975	0.003457408901367955	0.04649974850595626	-0.1686445282356522	0.2555450103183722	0.2555450103183651	-0.07572194161386415	0.01164017039095946	0.07713029675665879	0.02728261282593761	0.09124376813042939	-0.06725385617400972	0.0008471775697785581	-0.2342838129922774	0.1140525900838147	-0.04518374400260456	-0.01034068120716113	-29.64052861663093	-7.728455339695033	-16.54467368503685	-2.002600755505751	-3.726360508285659	-617.5406034309473	68.78202519353906	-1.042789019942984	-1.339124483220801	-0.6767797212445444	7.295415788653015	0.1149148678895459	1.476696704774906	-5.309943509798828	8.107288612914434	8.107288612913901	-2.407289301528751	0.3429941634748895	2.4546242046695	0.8769535572759919	4.396386581667395e-08	-1.166639923305924e-08	-2.94094723497807e-07	1.8960212588316e-07	4.365128716245479e-08	-1.629904501244266e-07	-2.497728743356892e-07
0.04	0.0002522683162672232	0.1261717492492952	0.9339536586819777	0.1996119946974161	-0.2139912433563005	-0.2405122293177933	-0.2949143927086093	0.2380297559648702	0.2380297559648702	0.0998428742595958	0.1652414023677476	0.09141040399285466	0.08209862697133019	-0.04444499548584025	-0.05554568131890675	-0.02769843081675094	0.3035726057324921	0.004403753896478155	0.06104317451854249	-0.2203220209159332	0.335955169012397	0.3359551690123865	-0.0991566388606749	0.0151502780442827	0.1014788585191994	0.03575580641536266	0.08735168977700963	-0.06326087412503148	0.0009947997575926611	-0.2311026083276471	0.1105340004502648	-0.04592374620277264	-0.006971535462090824	-29.67403974926868	-8.848129468304929	-17.05204422653253	-1.933201986371001	-3.4155231631536	-616.9772289358176	66.77916366263295	-1.138856960078715	-1.300619994427384	-0.6984919485167557	7.294272855322284	0.05992117671193233	1.430950153167441	-4.981312535049016	8.020520819558293	8.020520819558403	-2.26129626234483	0.3786986327603904	2.427202909564767	0.8035793910850167	4.41590144992338e-08	-1.967146350306711e-08	-2.861364573902493e-07	1.60707231497001e-07	5.013763244229682e-08	-2.414203516335877e-07	-2.230817199162176e-07
0.05	-0.0002447867933057732	0.1255522923698341	0.9336423759571935	0.2030020437123577	-0.2139432196110267	-0.2398312022037824	-0.2973670559699293	0.2417818639316378	0.2417818639316311	0.09873854991496703	0.1654097701821423	0.09254415216400529	0.08249692492736056	-0.0549226760387166	-0.06826190312060627	-0.03456665797901599	0.374066844000958	0.005193005097033037	0.07506632626459465	-0.2698416959248653	0.4140607033122131	0.4140607033122058	-0.1215700383610123	0.01847783250008132	0.1251596860086349	0.04386738402754955	0.08282325782250075	-0.0616826569863684	0.00119481856738009	-0.2279891810216224	0.1062051677453773	-0.04421339830688432	-0.003090778569097955	-29.71501453741579	-10.10636442175308	-16.47930221747747	-2.08190551548121	-3.163981573070086	-616.8600676966125	67.01199733542764	-0.9957143050951258	-1.244544475171976	-0.6823185937673283	6.871448422064176	0.08722365842481858	1.373643634954238	-4.881954670347987	7.644702747620198	7.644702747620601	-2.210660235168991	0.3029981569516304	2.321863669534062	0.8094616141814454	4.037072796500444e-08	-2.841609757086383e-08	-2.545455073811594e-07	8.939713662012666e-08	5.461107203625236e-08	-3.214211573754371e-07	-1.546242873926635e-07
